<svg width="57" height="29" viewBox="0 0 57 29" fill="none" xmlns="http://www.w3.org/2000/svg">
<path d="M15.8333 12.4744V14.1411C15.8333 15.6882 15.2187 17.1719 14.1247 18.2659C13.0308 19.3598 11.5471 19.9744 9.99996 19.9744M9.99996 19.9744C8.45286 19.9744 6.96913 19.3598 5.87517 18.2659C4.78121 17.1719 4.16663 15.6882 4.16663 14.1411V12.4744M9.99996 19.9744V22.4744M9.99996 5.80774C9.33692 5.80774 8.70103 6.07113 8.23219 6.53997C7.76335 7.00881 7.49996 7.6447 7.49996 8.30774V14.1411C7.49996 14.8041 7.76335 15.44 8.23219 15.9088C8.70103 16.3777 9.33692 16.6411 9.99996 16.6411C10.663 16.6411 11.2989 16.3777 11.7677 15.9088C12.2366 15.44 12.5 14.8041 12.5 14.1411V8.30774C12.5 7.6447 12.2366 7.00881 11.7677 6.53997C11.2989 6.07113 10.663 5.80774 9.99996 5.80774Z" stroke="white" stroke-width="2" stroke-linecap="round" stroke-linejoin="round"/>
<g clip-path="url(#clip0_2889_467)">
<path d="M33.3147 17.0306L31.5679 15.2421C31.4051 15.0767 31.2786 14.8792 31.1965 14.6621C31.1145 14.445 31.0786 14.2131 31.0914 13.9814C31.1041 13.7497 31.1651 13.5231 31.2704 13.3163C31.3757 13.1095 31.5231 12.927 31.703 12.7804C33.7322 11.188 36.1066 10.0938 38.6355 9.58569C40.9699 9.09415 43.3839 9.12262 45.7061 9.66907C48.2326 10.2403 50.5891 11.3986 52.5845 13.0502C52.7604 13.2006 52.9031 13.3858 53.0035 13.5943C53.1039 13.8028 53.1598 14.0299 53.1676 14.2611C53.1754 14.4924 53.1349 14.7227 53.0488 14.9375C52.9628 15.1523 52.8329 15.3468 52.6675 15.5086L50.879 17.2554C50.5925 17.5408 50.2119 17.7123 49.8083 17.7379C49.4047 17.7635 49.0055 17.6415 48.6852 17.3945C48.0507 16.8959 47.3618 16.4706 46.6317 16.1269C46.3431 15.9919 46.0992 15.7769 45.929 15.5075C45.7588 15.2381 45.6694 14.9256 45.6714 14.607L45.689 13.1104C43.3826 12.4467 40.9399 12.4179 38.6185 13.027L38.6008 14.5236C38.5953 14.8422 38.4985 15.1525 38.322 15.4178C38.1455 15.6831 37.8967 15.8922 37.6049 16.0204C36.8669 16.3469 36.1682 16.7558 35.5221 17.2393C35.1926 17.4813 34.7857 17.5937 34.3787 17.5553C33.9717 17.5168 33.593 17.33 33.3147 17.0306Z" stroke="#EB1C10" stroke-width="2" stroke-linecap="round" stroke-linejoin="round"/>
</g>
<defs>
<clipPath id="clip0_2889_467">
<rect width="20" height="20" fill="white" transform="translate(56.2822 14.3079) rotate(135.676)"/>
</clipPath>
</defs>
</svg>
